<svg width="180" height="29" viewBox="0 0 180 29" fill="none" xmlns="http://www.w3.org/2000/svg">
<path d="M13.2129 20.9248H17.5928C17.5049 22.3604 17.1094 23.6348 16.4062 24.748C15.7129 25.8613 14.7412 26.7305 13.4912 27.3555C12.251 27.9805 10.7568 28.293 9.00879 28.293C7.6416 28.293 6.41602 28.0586 5.33203 27.5898C4.24805 27.1113 3.32031 26.4277 2.54883 25.5391C1.78711 24.6504 1.20605 23.5762 0.805664 22.3164C0.405273 21.0566 0.205078 19.6455 0.205078 18.083V16.6035C0.205078 15.041 0.410156 13.6299 0.820312 12.3701C1.24023 11.1006 1.83594 10.0215 2.60742 9.13281C3.38867 8.24414 4.32129 7.56055 5.40527 7.08203C6.48926 6.60352 7.7002 6.36426 9.03809 6.36426C10.8154 6.36426 12.3145 6.68652 13.5352 7.33105C14.7656 7.97559 15.7178 8.86426 16.3916 9.99707C17.0752 11.1299 17.4854 12.4189 17.6221 13.8643H13.2275C13.1787 13.0049 13.0078 12.2773 12.7148 11.6816C12.4219 11.0762 11.9775 10.6221 11.3818 10.3193C10.7959 10.0068 10.0146 9.85059 9.03809 9.85059C8.30566 9.85059 7.66602 9.9873 7.11914 10.2607C6.57227 10.5342 6.11328 10.9492 5.74219 11.5059C5.37109 12.0625 5.09277 12.7656 4.90723 13.6152C4.73145 14.4551 4.64355 15.4414 4.64355 16.5742V18.083C4.64355 19.1865 4.72656 20.1582 4.89258 20.998C5.05859 21.8281 5.3125 22.5312 5.6543 23.1074C6.00586 23.6738 6.45508 24.1035 7.00195 24.3965C7.55859 24.6797 8.22754 24.8213 9.00879 24.8213C9.92676 24.8213 10.6836 24.6748 11.2793 24.3818C11.875 24.0889 12.3291 23.6543 12.6416 23.0781C12.9639 22.502 13.1543 21.7842 13.2129 20.9248ZM29.1504 10.3193L23.3496 28H18.6768L26.6016 6.67188H29.5752L29.1504 10.3193ZM33.9697 28L28.1543 10.3193L27.6855 6.67188H30.6885L38.6572 28H33.9697ZM33.7061 20.0605V23.5029H22.4414V20.0605H33.7061ZM54.3457 24.5723V28H43.6084V24.5723H54.3457ZM45.0293 6.67188V28H40.6348V6.67188H45.0293ZM71.1768 24.5723V28H59.8242V24.5723H71.1768ZM61.2598 6.67188V28H56.8652V6.67188H61.2598ZM69.6973 15.3584V18.6982H59.8242V15.3584H69.6973ZM71.1621 6.67188V10.1143H59.8242V6.67188H71.1621ZM91.0986 6.67188V28H86.7041L78.1348 13.7031V28H73.7402V6.67188H78.1348L86.7188 20.9834V6.67188H91.0986ZM101.47 28H96.8262L96.8555 24.5723H101.47C102.622 24.5723 103.594 24.3135 104.385 23.7959C105.176 23.2686 105.771 22.502 106.172 21.4961C106.582 20.4902 106.787 19.2744 106.787 17.8486V16.8086C106.787 15.7148 106.67 14.7529 106.436 13.9229C106.211 13.0928 105.874 12.3945 105.425 11.8281C104.976 11.2617 104.424 10.8369 103.77 10.5537C103.115 10.2607 102.363 10.1143 101.514 10.1143H96.7383V6.67188H101.514C102.939 6.67188 104.243 6.91602 105.425 7.4043C106.616 7.88281 107.646 8.57129 108.516 9.46973C109.385 10.3682 110.054 11.4424 110.522 12.6924C111.001 13.9326 111.24 15.3145 111.24 16.8379V17.8486C111.24 19.3623 111.001 20.7441 110.522 21.9941C110.054 23.2441 109.385 24.3184 108.516 25.2168C107.656 26.1055 106.626 26.7939 105.425 27.2822C104.233 27.7607 102.915 28 101.47 28ZM99.3164 6.67188V28H94.9219V6.67188H99.3164ZM122.783 10.3193L116.982 28H112.31L120.234 6.67188H123.208L122.783 10.3193ZM127.603 28L121.787 10.3193L121.318 6.67188H124.321L132.29 28H127.603ZM127.339 20.0605V23.5029H116.074V20.0605H127.339ZM120.308 5.4707L123.179 0.958984H127.764L123.735 5.4707H120.308ZM134.268 6.67188H142.222C143.853 6.67188 145.254 6.91602 146.426 7.4043C147.607 7.89258 148.516 8.61523 149.15 9.57227C149.785 10.5293 150.103 11.7061 150.103 13.1025C150.103 14.2451 149.907 15.2266 149.517 16.0469C149.136 16.8574 148.594 17.5361 147.891 18.083C147.197 18.6201 146.382 19.0498 145.444 19.3721L144.053 20.1045H137.139L137.109 16.6768H142.251C143.022 16.6768 143.662 16.54 144.17 16.2666C144.678 15.9932 145.059 15.6123 145.312 15.124C145.576 14.6357 145.708 14.0693 145.708 13.4248C145.708 12.7412 145.581 12.1504 145.327 11.6523C145.073 11.1543 144.688 10.7734 144.17 10.5098C143.652 10.2461 143.003 10.1143 142.222 10.1143H138.662V28H134.268V6.67188ZM146.191 28L141.328 18.4932L145.972 18.4639L150.894 27.7949V28H146.191ZM158.159 6.67188V28H153.779V6.67188H158.159ZM179.795 16.8379V17.8486C179.795 19.4697 179.575 20.9248 179.136 22.2139C178.696 23.5029 178.076 24.6016 177.275 25.5098C176.475 26.4082 175.518 27.0967 174.404 27.5752C173.301 28.0537 172.075 28.293 170.728 28.293C169.39 28.293 168.164 28.0537 167.051 27.5752C165.947 27.0967 164.99 26.4082 164.18 25.5098C163.369 24.6016 162.739 23.5029 162.29 22.2139C161.851 20.9248 161.631 19.4697 161.631 17.8486V16.8379C161.631 15.207 161.851 13.752 162.29 12.4727C162.729 11.1836 163.35 10.085 164.15 9.17676C164.961 8.26855 165.918 7.5752 167.021 7.09668C168.135 6.61816 169.36 6.37891 170.698 6.37891C172.046 6.37891 173.271 6.61816 174.375 7.09668C175.488 7.5752 176.445 8.26855 177.246 9.17676C178.057 10.085 178.682 11.1836 179.121 12.4727C179.57 13.752 179.795 15.207 179.795 16.8379ZM175.356 17.8486V16.8086C175.356 15.6758 175.254 14.6797 175.049 13.8203C174.844 12.9609 174.541 12.2383 174.141 11.6523C173.74 11.0664 173.252 10.627 172.676 10.334C172.1 10.0312 171.44 9.87988 170.698 9.87988C169.956 9.87988 169.297 10.0312 168.721 10.334C168.154 10.627 167.671 11.0664 167.271 11.6523C166.88 12.2383 166.582 12.9609 166.377 13.8203C166.172 14.6797 166.069 15.6758 166.069 16.8086V17.8486C166.069 18.9717 166.172 19.9678 166.377 20.8369C166.582 21.6963 166.885 22.4238 167.285 23.0195C167.686 23.6055 168.174 24.0498 168.75 24.3525C169.326 24.6553 169.985 24.8066 170.728 24.8066C171.47 24.8066 172.129 24.6553 172.705 24.3525C173.281 24.0498 173.765 23.6055 174.155 23.0195C174.546 22.4238 174.844 21.6963 175.049 20.8369C175.254 19.9678 175.356 18.9717 175.356 17.8486Z" fill="url(#paint0_linear_122_250)"/>
<defs>
<linearGradient id="paint0_linear_122_250" x1="90" y1="-1" x2="90" y2="37" gradientUnits="userSpaceOnUse">
<stop stop-color="white"/>
<stop offset="1" stop-color="#D9D9D9" stop-opacity="0.8"/>
</linearGradient>
</defs>
</svg>
